<?xml version="1.0" encoding="UTF-8"?><svg id="Layer_2" xmlns="http://www.w3.org/2000/svg" viewBox="0 0 1045.06 1045.06"><defs><style>.cls-1{fill:#db4849;}.cls-1,.cls-2{stroke-width:0px;}.cls-2{fill:#fff;}</style></defs><g id="Layer_1-2"><circle class="cls-1" cx="522.53" cy="522.53" r="522.53"/><path class="cls-2" d="M874.88,274.68l-217.87,39.94c-3.96.73-5.48,5.6-2.63,8.45l37.59,37.59c1.95,1.95,1.95,5.12,0,7.07l-150.16,150.16c-1.95,1.95-5.12,1.95-7.07,0l-37.39-37.39-88.61-88.61c-3.91-3.91-10.24-3.91-14.14,0l-88.61,88.61-188.44,188.44c-3.91,3.91-3.91,10.24,0,14.14l81.54,81.54c3.91,3.91,10.24,3.91,14.14,0l184.91-184.91c1.95-1.95,5.12-1.95,7.07,0l37.39,37.39,88.61,88.61c3.91,3.91,10.24,3.91,14.14,0l88.61-88.61,153.69-153.69c1.95-1.95,5.12-1.95,7.07,0l37.55,37.55c2.85,2.85,7.73,1.33,8.45-2.63l39.98-217.83c.63-3.44-2.38-6.45-5.82-5.82Z"/></g></svg>