<?xml version="1.0" encoding="UTF-8"?><svg id="Layer_2" xmlns="http://www.w3.org/2000/svg" viewBox="0 0 1045.06 1045.06"><defs><style>.cls-1{fill:#db4849;}.cls-1,.cls-2{stroke-width:0px;}.cls-2{fill:#fff;}</style></defs><g id="Layer_1-2"><circle class="cls-1" cx="522.53" cy="522.53" r="522.53"/><path class="cls-2" d="M913.33,713.5c-43.33,34.62-221.55,44.14-339.13,28.58-5.61-19.2-13.22-37.6-22.75-54.95-11.81-21.48-26.26-40.81-43.02-57.58,39.83-68.5,108.64-113.76,186.86-113.76,106.97,0,196.39,84.68,218.05,197.7Z"/><ellipse class="cls-2" cx="695.28" cy="370.83" rx="141.82" ry="136.52"/><path class="cls-2" d="M348.12,810.76c-78.33,0-181.5-9.35-214.49-35.7l-1.9-1.52.46-2.39c10.45-54.47,37.49-104.02,76.13-139.5,19.3-17.73,40.92-31.55,64.26-41.07,24.18-9.87,49.6-14.88,75.57-14.88s51.38,5.01,75.55,14.88c23.34,9.53,44.95,23.35,64.25,41.07,38.64,35.49,65.67,85.03,76.11,139.5l.46,2.39-1.9,1.52c-32.99,26.35-136.16,35.7-214.49,35.7Z"/><path class="cls-2" d="M348.14,569.1c-78.24,0-141.89-61.34-141.89-136.74s63.65-136.74,141.89-136.74,141.89,61.34,141.89,136.74-63.65,136.74-141.89,136.74Z"/></g></svg>