<?xml version="1.0" encoding="UTF-8"?><svg id="a" xmlns="http://www.w3.org/2000/svg" viewBox="0 0 80 80"><defs><style>.b,.c{fill:#ed3742;}.c{fill-rule:evenodd;}</style></defs><g><path class="b" d="M60.46,20.27c-1.74,0-5.04,1.05-5.04,5.04v21.72h1.77V25.31c0-3.14,2.94-3.26,3.27-3.27h3.66v-1.77h-3.66Zm0,0c-1.74,0-5.04,1.05-5.04,5.04v25.15h1.77V25.31c0-3.14,2.94-3.26,3.27-3.27h3.66v-1.77h-3.66Zm0,0c-1.74,0-5.04,1.05-5.04,5.04v25.15h1.77V25.31c0-3.14,2.94-3.26,3.27-3.27h3.66v-1.77h-3.66Zm14.51,0h-14.51c-1.74,0-5.04,1.05-5.04,5.04V62.62c0,3.98,3.3,5.03,5.04,5.03h14.51c1.74,0,5.03-1.05,5.03-5.03V25.31c0-3.99-3.29-5.04-5.03-5.04Zm3.26,42.35c0,3.13-2.93,3.26-3.27,3.26h-14.5c-.33,0-3.27-.09-3.27-3.26V25.31c0-3.14,2.94-3.26,3.27-3.27h14.51c.33,0,3.26,.09,3.26,3.27V62.62ZM60.46,20.27c-1.74,0-5.04,1.05-5.04,5.04v25.15h1.77V25.31c0-3.14,2.94-3.26,3.27-3.27h3.66v-1.77h-3.66Zm0,0c-1.74,0-5.04,1.05-5.04,5.04v25.15h1.77V25.31c0-3.14,2.94-3.26,3.27-3.27h3.66v-1.77h-3.66Zm0,0c-1.74,0-5.04,1.05-5.04,5.04v21.72h1.77V25.31c0-3.14,2.94-3.26,3.27-3.27h.44v-1.77h-.44Z"/><path class="c" d="M70.83,24.71v.13c0,.25-.13,.46-.28,.46h-5.67c-.16,0-.28-.21-.28-.46v-.13c0-.25,.12-.45,.28-.45h5.67c.15,0,.28,.2,.28,.45Z"/><path class="c" d="M69.78,61.59c0,1.14-.92,2.06-2.08,2.06s-2.06-.92-2.06-2.06,.92-2.08,2.06-2.08,2.08,.92,2.08,2.08h0Z"/><rect class="b" x="56.37" y="26.42" width="22.67" height="1.77"/><rect class="b" x="56.37" y="56.5" width="22.67" height="1.77"/></g><g><path class="b" d="M60.08,15.57H8.47c-1.38,0-2.49,1.06-2.49,2.37v28.39c0,1.31,1.12,2.37,2.49,2.37H57.19v-1.67H8.47c-.45,0-.82-.32-.82-.7V17.94c0-.39,.37-.7,.82-.7H60.08c.45,0,.82,.32,.82,.7v4.1h1.67v-4.1c0-1.31-1.12-2.37-2.49-2.37Zm.82,10.85v1.77h1.67v-1.77h-1.67Z"/><path class="b" d="M66.59,56.5c-.43,.86-1.33,1.46-2.36,1.46H4.31c-1.46,0-2.64-1.18-2.64-2.64v-2.95c0-.13,.11-.24,.24-.24h2.52V17.27c0-1.8,1.46-3.25,3.25-3.25H60.86c1.8,0,3.26,1.46,3.26,3.25v4.77h1.67v-4.77c0-2.71-2.21-4.92-4.93-4.92H7.68c-2.71,0-4.92,2.21-4.92,4.92V50.46h-.85c-1.05,0-1.91,.85-1.91,1.91v2.95c0,2.37,1.93,4.31,4.31,4.31H57.19v-1.36h10.18c.47-.49,.82-1.1,1.01-1.77h-1.79Zm-1.72-32.23c-.16,0-.28,.2-.28,.45v.13c0,.25,.12,.46,.28,.46h.92v-1.04h-.92Zm-.75,2.15v1.77h1.67v-1.77h-1.67Z"/><path class="b" d="M28.34,52.99h11.87v1.06c0,.47-.39,.86-.86,.86h-10.15c-.47,0-.86-.38-.86-.86v-1.06h0Z"/><rect class="b" x="3.59" y="50.46" width="53.6" height="1.67"/></g></svg>