<svg xmlns="http://www.w3.org/2000/svg" xmlns:xlink="http://www.w3.org/1999/xlink" viewBox="0 0 2.45 28.73"><defs><style>.cls-1{fill:none;}.cls-2{clip-path:url(#clip-path);}.cls-3{fill:#ed3742;}</style><clipPath id="clip-path1" transform="translate(-0.02 -2.98)"><rect class="cls-1" width="2.5" height="35.03"/></clipPath></defs><g id="Layer_2" data-name="Layer 2"><g id="Layer_1-2" data-name="Layer 1"><g class="cls-2"><path class="cls-3" d="M2.48,30.48a1.1,1.1,0,0,1-.1.47,1.16,1.16,0,0,1-.26.39,1.18,1.18,0,0,1-.4.27,1.27,1.27,0,0,1-.94,0,1.18,1.18,0,0,1-.4-.27A1.16,1.16,0,0,1,.12,31a1.28,1.28,0,0,1-.1-.47A1.24,1.24,0,0,1,.12,30a1.31,1.31,0,0,1,.26-.4,1.56,1.56,0,0,1,.4-.27,1.27,1.27,0,0,1,.94,0,1.56,1.56,0,0,1,.4.27,1.31,1.31,0,0,1,.26.4A1.07,1.07,0,0,1,2.48,30.48Zm0-5.26a1.07,1.07,0,0,1-.1.47,1.31,1.31,0,0,1-.26.4,1.56,1.56,0,0,1-.4.27,1.27,1.27,0,0,1-.94,0,1.56,1.56,0,0,1-.4-.27,1.31,1.31,0,0,1-.26-.4,1.24,1.24,0,0,1-.1-.47,1.28,1.28,0,0,1,.1-.47,1.16,1.16,0,0,1,.26-.39,1.18,1.18,0,0,1,.4-.27,1.27,1.27,0,0,1,.94,0,1.18,1.18,0,0,1,.4.27,1.16,1.16,0,0,1,.26.39A1.1,1.1,0,0,1,2.48,25.22Zm0-5.25a1.1,1.1,0,0,1-.1.47,1.16,1.16,0,0,1-.26.39,1.18,1.18,0,0,1-.4.27,1.27,1.27,0,0,1-.94,0,1.18,1.18,0,0,1-.4-.27,1.16,1.16,0,0,1-.26-.39,1.15,1.15,0,0,1,0-.94,1.31,1.31,0,0,1,.26-.4,1.31,1.31,0,0,1,.4-.26,1.1,1.1,0,0,1,.47-.1,1.1,1.1,0,0,1,.47.1,1.31,1.31,0,0,1,.4.26,1.31,1.31,0,0,1,.26.4A1.1,1.1,0,0,1,2.48,20Zm0-5.26a1.07,1.07,0,0,1-.1.47,1.2,1.2,0,0,1-.26.4,1.34,1.34,0,0,1-.4.27,1.27,1.27,0,0,1-.94,0,1.34,1.34,0,0,1-.4-.27,1.2,1.2,0,0,1-.26-.4,1.24,1.24,0,0,1-.1-.47,1.28,1.28,0,0,1,.1-.47,1.16,1.16,0,0,1,.26-.39,1.18,1.18,0,0,1,.4-.27,1.27,1.27,0,0,1,.94,0,1.18,1.18,0,0,1,.4.27,1.16,1.16,0,0,1,.26.39A1.1,1.1,0,0,1,2.48,14.71Zm0-5.25a1.1,1.1,0,0,1-.1.47,1.31,1.31,0,0,1-.26.4,1.31,1.31,0,0,1-.4.26,1.27,1.27,0,0,1-.94,0,1.31,1.31,0,0,1-.4-.26,1.31,1.31,0,0,1-.26-.4A1.15,1.15,0,0,1,.12,9a1.31,1.31,0,0,1,.26-.4,1.31,1.31,0,0,1,.4-.26,1.1,1.1,0,0,1,.47-.1,1.1,1.1,0,0,1,.47.1,1.31,1.31,0,0,1,.4.26,1.31,1.31,0,0,1,.26.4A1.1,1.1,0,0,1,2.48,9.46Zm0-5.26a1.07,1.07,0,0,1-.1.47,1.2,1.2,0,0,1-.26.4,1.34,1.34,0,0,1-.4.27,1.27,1.27,0,0,1-.94,0,1.34,1.34,0,0,1-.4-.27,1.2,1.2,0,0,1-.26-.4A1.24,1.24,0,0,1,0,4.2a1.28,1.28,0,0,1,.1-.47,1.16,1.16,0,0,1,.26-.39,1.18,1.18,0,0,1,.4-.27,1.27,1.27,0,0,1,.94,0,1.18,1.18,0,0,1,.4.27,1.16,1.16,0,0,1,.26.39A1.1,1.1,0,0,1,2.48,4.2Z" transform="translate(-0.02 -2.98)"/></g></g></g></svg>