<svg id="Layer_1" data-name="Layer 1" xmlns="http://www.w3.org/2000/svg" viewBox="0 0 80 80"><rect x="54.36" y="18.2" width="2.22" height="43.23" transform="translate(-11.9 50.89) rotate(-45)" style="fill:#c02129"/><rect x="2.91" y="38.7" width="43.23" height="2.22" transform="translate(-20.97 29.01) rotate(-45)" style="fill:#c02129"/><circle cx="68.73" cy="58.72" r="10.17" style="fill:#fff"/><path d="M68.73,70A11.28,11.28,0,1,1,80,58.72,11.29,11.29,0,0,1,68.73,70Zm0-20.33a9.06,9.06,0,1,0,9,9A9.06,9.06,0,0,0,68.73,49.67Z" style="fill:#c02129"/><circle cx="40.06" cy="21.28" r="10.17" style="fill:#fff"/><path d="M40.06,32.55A11.28,11.28,0,1,1,51.33,21.28,11.28,11.28,0,0,1,40.06,32.55Zm0-20.33a9.06,9.06,0,1,0,9.06,9.06A9.06,9.06,0,0,0,40.06,12.22Z" style="fill:#c02129"/><circle cx="11.27" cy="58.72" r="10.17" style="fill:#fff"/><path d="M11.27,70A11.28,11.28,0,1,1,22.55,58.72,11.29,11.29,0,0,1,11.27,70Zm0-20.33a9.06,9.06,0,1,0,9.06,9A9.06,9.06,0,0,0,11.27,49.67Z" style="fill:#c02129"/><path d="M62.66,67.53c0-3.91,2.72-7.08,6.07-7.08s6.06,3.17,6.06,7.08l-6.06.74Z" style="fill:#323232"/><circle cx="68.73" cy="56.48" r="3.85" style="fill:#323232"/><path d="M5.21,67.53c0-3.91,2.71-7.08,6.06-7.08s6.07,3.17,6.07,7.08l-6.07.74Z" style="fill:#323232"/><circle cx="11.27" cy="56.48" r="3.85" style="fill:#323232"/><path d="M34.17,30.2c0-3.91,2.72-7.08,6.07-7.08s6.06,3.17,6.06,7.08l-6.06.74Z" style="fill:#323232"/><circle cx="40.24" cy="19.16" r="3.85" style="fill:#323232"/><path d="M68.73,70A11.28,11.28,0,1,1,80,58.72,11.29,11.29,0,0,1,68.73,70Zm0-20.33a9.06,9.06,0,1,0,9,9A9.06,9.06,0,0,0,68.73,49.67Z" style="fill:#c02129"/><path d="M40.06,32.55A11.28,11.28,0,1,1,51.33,21.28,11.28,11.28,0,0,1,40.06,32.55Zm0-20.33a9.06,9.06,0,1,0,9.06,9.06A9.06,9.06,0,0,0,40.06,12.22Z" style="fill:#c02129"/><path d="M11.27,70A11.28,11.28,0,1,1,22.55,58.72,11.29,11.29,0,0,1,11.27,70Zm0-20.33a9.06,9.06,0,1,0,9.06,9A9.06,9.06,0,0,0,11.27,49.67Z" style="fill:#c02129"/></svg>