<svg id="PerksLayer_1" data-name="Layer 1" xmlns="http://www.w3.org/2000/svg" viewBox="0 0 80 80"><polygon points="66.37 10 70.58 18.53 80 19.9 73.19 26.55 74.79 35.92 66.37 31.5 57.95 35.92 59.55 26.55 52.74 19.9 62.16 18.53 66.37 10" style="fill:#ed3742"/><path d="M2.05,34.85a17.41,17.41,0,0,0-.16,16.06,4.83,4.83,0,0,0,4.37,2.51h.17c3.15,0,5.62,0,7.39,0A10,10,0,0,1,19,54.65L38.53,67.54a15.52,15.52,0,0,0,8,2.46h29.2S80,69.61,80,65.82c0-2.92-2.72-3.69-6.13-3.69L55.73,62a11.79,11.79,0,0,1-5.84-2L37,51.63s-3.69-2.14-2.23-5.06a3,3,0,0,1,4.09-1.17C40,46.08,55.5,56.1,55.5,56.1s4.67,1.85,6-.58a4.86,4.86,0,0,0-.77-5.5l-22-16.55a12.14,12.14,0,0,0-6.27-1.39H6.23a4.49,4.49,0,0,0-4,2.5s0,.05,0,.08a1.65,1.65,0,0,1-.1.19Zm0-.14" style="fill:#323232"/></svg>