<svg id="PortfolioLayer_1" data-name="Layer 1" xmlns="http://www.w3.org/2000/svg" viewBox="0 0 80 80"><path d="M65.85,78.45H25.21a3,3,0,0,1-2.76-3.13V17.2a3,3,0,0,1,2.76-3.13H65.85a3,3,0,0,1,2.76,3.13V75.32A3,3,0,0,1,65.85,78.45Z" style="fill:#c02129"/><path d="M60.32,72.2H19.68a3,3,0,0,1-2.76-3.13V11a3,3,0,0,1,2.76-3.13H60.32A3,3,0,0,1,63.08,11V69.07A3,3,0,0,1,60.32,72.2Z" style="fill:#ed3742"/><path d="M54.78,65.94H14.15a3,3,0,0,1-2.77-3.13V4.69a3,3,0,0,1,2.77-3.13H54.78a3,3,0,0,1,2.76,3.13V62.81A3,3,0,0,1,54.78,65.94Z" style="fill:#fff"/><rect x="19.12" y="13.12" width="13.27" height="15" style="fill:#ed3742"/><path d="M54.78,0H14.15A4.45,4.45,0,0,0,10,4.69V62.81a4.45,4.45,0,0,0,4.15,4.69H54.78a4.45,4.45,0,0,0,4.15-4.69V4.69A4.45,4.45,0,0,0,54.78,0Zm1.38,62.81a1.48,1.48,0,0,1-1.38,1.56H14.15a1.48,1.48,0,0,1-1.39-1.56V4.69a1.49,1.49,0,0,1,1.39-1.57H54.78a1.49,1.49,0,0,1,1.38,1.57Z" style="fill:#323232"/><path d="M60.32,73.76H19.63a1.58,1.58,0,0,1,0-3.13H60.32a1.48,1.48,0,0,0,1.38-1.56V7.82a1.39,1.39,0,1,1,2.76,0V69.07A4.45,4.45,0,0,1,60.32,73.76Z" style="fill:#323232"/><path d="M65.85,80H22.46a1.58,1.58,0,0,1,0-3.13H65.85a1.48,1.48,0,0,0,1.39-1.56V14.06a1.39,1.39,0,1,1,2.76,0V75.31A4.45,4.45,0,0,1,65.85,80Z" style="fill:#323232"/><path d="M32.39,29.69H19.12a1.48,1.48,0,0,1-1.38-1.57v-15a1.48,1.48,0,0,1,1.38-1.56H32.39a1.48,1.48,0,0,1,1.38,1.56v15A1.48,1.48,0,0,1,32.39,29.69ZM20.5,26.56H31V14.69H20.5Z" style="fill:#323232"/><path d="M22.31,44.71h0a1.32,1.32,0,0,1-1-.46l-2.69-3a1.71,1.71,0,0,1,0-2.21,1.28,1.28,0,0,1,2,0l1.7,1.94L26,36.78a1.27,1.27,0,0,1,2,0,1.71,1.71,0,0,1,0,2.21l-4.65,5.26A1.32,1.32,0,0,1,22.31,44.71Z" style="fill:#323232"/><path d="M50.59,42H34.46a1.57,1.57,0,0,1,0-3.12H50.59a1.57,1.57,0,0,1,0,3.12Z" style="fill:#323232"/><path d="M49.8,14.69H40.13a1.48,1.48,0,0,1-1.38-1.57,1.48,1.48,0,0,1,1.38-1.56H49.8a1.48,1.48,0,0,1,1.39,1.56A1.48,1.48,0,0,1,49.8,14.69Z" style="fill:#323232"/><path d="M49.8,22.19H40.13a1.58,1.58,0,0,1,0-3.13H49.8a1.58,1.58,0,0,1,0,3.13Z" style="fill:#323232"/><path d="M49.8,29.69H40.13a1.58,1.58,0,0,1,0-3.13H49.8a1.58,1.58,0,0,1,0,3.13Z" style="fill:#323232"/><path d="M22.31,56.64h0a1.32,1.32,0,0,1-1-.46l-2.69-3a1.71,1.71,0,0,1,0-2.21,1.28,1.28,0,0,1,2,0l1.7,1.93L26,48.71a1.27,1.27,0,0,1,2,0,1.71,1.71,0,0,1,0,2.21l-4.65,5.26A1.32,1.32,0,0,1,22.31,56.64Z" style="fill:#323232"/><path d="M50.59,53.91H34.46a1.58,1.58,0,0,1,0-3.13H50.59a1.58,1.58,0,0,1,0,3.13Z" style="fill:#323232"/></svg>