<?xml version="1.0" encoding="UTF-8"?><svg id="a" xmlns="http://www.w3.org/2000/svg" viewBox="0 0 80 80"><defs><style>.b{fill:#ed3742;}</style></defs><polygon class="b" points="28.06 25.78 35.22 28.97 35.22 26.89 30.17 24.97 35.22 23.02 35.22 20.94 28.06 24.13 28.06 25.78"/><polygon class="b" points="41.35 17.91 36.44 31.44 38.08 31.44 42.98 17.91 41.35 17.91"/><polygon class="b" points="51.85 24.13 44.45 20.94 44.45 22.99 49.74 24.93 44.45 26.92 44.45 28.96 51.85 25.78 51.85 24.13"/><path class="b" d="M80,39.98l-14.34-8.15,12.42-7.11L40,3.09,1.92,24.72l12.42,7.11L0,39.98l13.38,7.66L0,55.24l40,22.88,39.99-22.88-13.38-7.6,13.38-7.66ZM5.76,24.73L40,5.28l34.23,19.44-34.23,19.58L5.76,24.73Zm3.91,18.6c.55-.21,.95-.73,.95-1.36,0-.8-.65-1.45-1.45-1.45s-1.45,.65-1.45,1.45c0,.09,.01,.17,.03,.25l-3.9-2.23,12.42-7.06,6.47,3.7s-.04,0-.06,0c-.76,0-1.38,.62-1.38,1.38s.62,1.38,1.38,1.38,1.38-.62,1.38-1.38c0-.27-.08-.53-.22-.74l13.71,7.84c-.36,.25-.6,.67-.6,1.14,0,.76,.62,1.38,1.38,1.38s1.33-.57,1.37-1.29l.29,.17,14.59-8.35c.08,.69,.66,1.23,1.37,1.23,.76,0,1.38-.62,1.38-1.38,0-.45-.22-.85-.56-1.1l6.95-3.98,1.71,.97c-.61,.14-1.07,.69-1.07,1.34,0,.76,.62,1.38,1.38,1.38s1.38-.62,1.38-1.38c0-.15-.03-.29-.07-.43l9.1,5.17-36.15,20.68L9.68,43.32Zm66.47,11.92l-36.15,20.68L3.84,55.25l11.46-6.51,24.7,14.13,24.69-14.13,11.46,6.51Z"/><path class="b" d="M51.84,51.77c.76,0,1.38-.62,1.38-1.38s-.62-1.38-1.38-1.38-1.38,.62-1.38,1.38,.62,1.38,1.38,1.38Z"/><path class="b" d="M68.51,43.28c.76,0,1.38-.62,1.38-1.38s-.62-1.38-1.38-1.38-1.38,.62-1.38,1.38,.62,1.38,1.38,1.38Z"/><path class="b" d="M47.64,55.9c.76,0,1.38-.62,1.38-1.38s-.62-1.38-1.38-1.38-1.38,.62-1.38,1.38,.62,1.38,1.38,1.38Z"/><path class="b" d="M26.68,48.14c-.76,0-1.38,.62-1.38,1.38s.62,1.38,1.38,1.38,1.38-.62,1.38-1.38-.62-1.38-1.38-1.38Z"/></svg>