<!-- <?xml version="1.0" encoding="UTF-8"?>
<svg id="a" xmlns="http://www.w3.org/2000/svg" viewBox="0 0 80 80">
<defs>
<style>
.b{fill:#ed3742;}
transition: all 1s ease;

#ruler {
    transform: translateX(-100%);
}

svg:hover #ruler {
    transform: translateX(20%);
}
svg:hover #pen {
    transform: translateX(20%);
}
svg:hover #pencil{
    transform: translateX(20%);
}
</style>
</defs>
<path id="ruler" class="b" d="M59.39,.47V79.53h20.61V.47h-20.61Zm1.97,77.08V2.46h16.68V15.02h-11.02v1.99h11.02v14.88h-11.02v1.99h11.02v14.37h-11.02v1.99h11.02v14.37h-11.02v1.99h11.02v10.94h-16.68Z"/>
<path id="pen" class="b" d="M39.72,23.08v26.88l.48,.29c.21,.13,.71,.5,.7,1.17,0,.38-.14,.73-.41,.99-.26,.26-.61,.41-.98,.41h-.01c-.77-.01-1.39-.63-1.39-1.4,0-.68,.5-1.05,.71-1.17l.48-.29V23.1l-15.13,27.8,4.81,14.54-.03,14.04,21.01,.05,.03-14.02,4.89-14.54-15.16-27.89Zm8.28,54.48l-17.08-.04,.03-11.12,17.07,.04-.02,11.12Zm.31-13.21l-17.63-.04-4.37-13.22,11.08-20.25-.05,18.05c-.76,.64-1.19,1.54-1.2,2.52,0,1.86,1.5,3.37,3.36,3.37h.01c.89,0,1.74-.34,2.37-.98,.64-.63,.99-1.47,.99-2.37,0-.98-.43-1.89-1.18-2.53l.04-17.68v-.35l11.01,20.29-4.43,13.19Z"/>
<path id="pencil" class="b" d="M10.31,.47L0,16.39v63.14H20.61V16.39L10.31,.47Zm7.51,15.23H2.79L10.31,4.09l7.51,11.61Zm-3.06,61.87V22.6h-1.97v54.96H7.82V22.6h-1.97v54.96H1.97V17.66H18.64v59.9h-3.89Z"/></svg> -->


<svg id="a" xmlns="http://www.w3.org/2000/svg" viewBox="0 0 80 80">
    <defs>
        <style>
            .b {
                fill: #ed3742;
                transition: all 1s ease;
            }

            #pencil{
                transform: translateX(-100%);
            }

            #ruler{
                transform: translateX(-100%);
            }

            #pen{
                transform: translateX(-100%);
            }


            svg:hover #pencil {
                transform: translateX(0%);
            
            }

            svg:hover #pen {
                transform: translateX(10%);
                
            }

            svg:hover #ruler {
                transform: translateX(0%);
              
            }

          
        </style>
    </defs>
    <path id="ruler" class="b" d="M59.39,.47V79.53h20.61V.47h-20.61Zm1.97,77.08V2.46h16.68V15.02h-11.02v1.99h11.02v14.88h-11.02v1.99h11.02v14.37h-11.02v1.99h11.02v14.37h-11.02v1.99h11.02v10.94h-16.68Z" />
    <path id="pencil" class="b" d="M39.72,23.08v26.88l.48,.29c.21,.13,.71,.5,.7,1.17,0,.38-.14,.73-.41,.99-.26,.26-.61,.41-.98,.41h-.01c-.77-.01-1.39-.63-1.39-1.4,0-.68,.5-1.05,.71-1.17l.48-.29V23.1l-15.13,27.8,4.81,14.54-.03,14.04,21.01,.05,.03-14.02,4.89-14.54-15.16-27.89Zm8.28,54.48l-17.08-.04,.03-11.12,17.07,.04-.02,11.12Zm.31-13.21l-17.63-.04-4.37-13.22,11.08-20.25-.05,18.05c-.76,.64-1.19,1.54-1.2,2.52,0,1.86,1.5,3.37,3.36,3.37h.01c.89,0,1.74-.34,2.37-.98,.64-.63,.99-1.47,.99-2.37,0-.98-.43-1.89-1.18-2.53l.04-17.68v-.35l11.01,20.29-4.43,13.19Z" />
    <path id="pencil" class="b" d="M10.31,.47L0,16.39v63.14H20.61V16.39L10.31,.47Zm7.51,15.23H2.79L10.31,4.09l7.51,11.61Zm-3.06,61.87V22.6h-1.97v54.96H7.82V22.6h-1.97v54.96H1.97V17.66H18.64v59.9h-3.89Z" />
</svg>

