<?xml version="1.0" encoding="UTF-8"?><svg id="Layer_1" xmlns="http://www.w3.org/2000/svg" viewBox="0 0 1080 1080"><defs><style>.cls-1{fill:#ed3742;}</style></defs><rect class="cls-1" x="215.54" y="674.73" width="186.31" height="294.68" rx="15.39" ry="15.39"/><rect class="cls-1" x="434.91" y="539.25" width="186.31" height="430.16" rx="17.76" ry="17.76"/><rect class="cls-1" x="654.27" y="405.62" width="186.31" height="563.79" rx="19.83" ry="19.83"/><path class="cls-1" d="M857.94,93.96l-190.54,34.93c-3.47.64-4.8,4.9-2.3,7.39l32.87,32.87c1.71,1.71,1.71,4.48,0,6.18l-131.33,131.33c-1.71,1.71-4.48,1.71-6.18,0l-32.7-32.7-77.5-77.5c-3.42-3.42-8.95-3.42-12.37,0l-77.5,77.5-164.81,164.81c-3.42,3.42-3.42,8.95,0,12.37l71.31,71.31c3.42,3.42,8.95,3.42,12.37,0l161.72-161.72c1.71-1.71,4.48-1.71,6.18,0l32.7,32.7,77.5,77.5c3.42,3.42,8.95,3.42,12.37,0l77.5-77.5,134.42-134.42c1.71-1.71,4.48-1.71,6.18,0l32.84,32.84c2.49,2.49,6.76,1.16,7.39-2.3l34.97-190.51c.55-3.01-2.08-5.64-5.09-5.09Z"/></svg>