<?xml version="1.0" encoding="UTF-8"?><svg id="Layer_1" xmlns="http://www.w3.org/2000/svg" viewBox="0 0 1080 1080"><defs><style>.cls-1{fill:#ed3742;}</style></defs><path class="cls-1" d="M345.12,709.06h151.52v199.73c0,41.81-33.95,75.76-75.76,75.76h0c-41.81,0-75.76-33.95-75.76-75.76v-199.73h0Z" transform="translate(-215.42 147.28) rotate(-15.86)"/><path class="cls-1" d="M263.52,423.89h153.48v306.97h-153.48c-84.71,0-153.48-68.77-153.48-153.48h0c0-84.71,68.77-153.48,153.48-153.48Z" transform="translate(-147.77 94.01) rotate(-15.86)"/><path class="cls-1" d="M825.59,398.51l-77.65-273.29c-7.29-25.64-40.25-32.74-57.44-12.37l-100.83,119.44c-99.47,119.57-210,152.54-210,152.54l47.35,166.64h0s36.61,128.85,36.61,128.85c0,0,111.35-30.08,258.83,19.33l148.57,48.58c25.33,8.28,49.64-15.09,42.36-40.73l-87.79-308.97h0Z"/><path class="cls-1" d="M872.23,522.6c64.22-18.25,101.49-85.1,83.24-149.32-18.25-64.22-85.1-101.49-149.32-83.24l66.08,232.57Z"/></svg>