<?xml version="1.0" encoding="UTF-8"?>
<svg id="a" xmlns="http://www.w3.org/2000/svg" viewBox="0 0 80 80">
    <defs>
        <style>.b{fill:#ed3742;}.c{fill:#fff;}</style>
    </defs>
    <circle class="b" cx="40" cy="40.34" r="40"/>
    <path class="c" d="M59.73,31.69c-.34-.46-.82-.81-1.44-1.05,.03,.57,0,1.04-.12,1.4l-7.34,24.14c-.13,.42-.42,.76-.86,1.01-.44,.25-.9,.38-1.37,.38H26.03c-1.96,0-3.13-.57-3.52-1.71-.16-.44-.16-.79,.02-1.05,.18-.24,.49-.37,.93-.37h21.25c1.52,0,2.57-.28,3.14-.84,.58-.56,1.16-1.81,1.75-3.75l6.7-22.16c.36-1.21,.21-2.27-.44-3.18-.65-.91-1.58-1.37-2.79-1.37h-18.61c-.21,0-.63,.07-1.25,.22l.02-.07c-.46-.1-.84-.14-1.16-.14-.32,0-.61,.1-.88,.28-.27,.18-.48,.37-.65,.57-.16,.2-.32,.46-.48,.78-.16,.32-.29,.61-.39,.88-.11,.27-.23,.55-.37,.86-.14,.3-.27,.55-.4,.75-.1,.13-.24,.3-.41,.51-.18,.21-.33,.4-.44,.56-.11,.16-.19,.31-.22,.44-.03,.15-.02,.36,.05,.65,.06,.28,.09,.49,.07,.62-.07,.62-.29,1.41-.67,2.36-.38,.95-.73,1.64-1.04,2.07-.07,.08-.25,.27-.54,.55-.29,.28-.47,.53-.54,.75-.07,.08-.07,.31-.01,.68,.06,.38,.08,.64,.06,.78-.06,.55-.27,1.29-.61,2.2-.34,.91-.68,1.66-1.03,2.25-.05,.1-.19,.29-.41,.56-.23,.28-.37,.51-.42,.68-.03,.13-.03,.36,.01,.69,.04,.33,.04,.57-.01,.73-.13,.62-.38,1.36-.73,2.24-.36,.87-.73,1.62-1.1,2.24-.1,.16-.23,.35-.4,.57-.17,.22-.31,.41-.4,.57-.1,.16-.16,.34-.2,.51-.02,.1,0,.26,.07,.48,.06,.22,.09,.4,.07,.53-.02,.23-.05,.53-.1,.91-.05,.38-.07,.59-.07,.66-.36,.98-.34,2.01,.05,3.11,.46,1.27,1.27,2.34,2.43,3.22,1.17,.87,2.38,1.31,3.63,1.31h22.57c1.06,0,2.06-.35,3-1.06,.94-.71,1.56-1.58,1.87-2.63l6.72-22.16c.36-1.17,.21-2.23-.44-3.15h0Zm-26.02,.05l.51-1.57c.07-.21,.2-.39,.4-.55,.2-.16,.41-.23,.62-.23h14.87c.23,0,.39,.08,.49,.23,.1,.16,.11,.34,.05,.55l-.51,1.57c-.07,.21-.2,.4-.4,.55-.2,.15-.41,.23-.62,.23h-14.87c-.23,0-.39-.08-.49-.23-.1-.16-.11-.34-.05-.55h0Zm-2.03,6.26l.51-1.57c.07-.21,.2-.4,.4-.55,.2-.16,.41-.23,.62-.23h14.87c.23,0,.39,.08,.49,.23,.1,.15,.11,.34,.05,.55l-.51,1.57c-.06,.21-.2,.39-.4,.55-.2,.16-.41,.23-.62,.23h-14.87c-.23,0-.39-.08-.49-.23-.1-.16-.11-.34-.05-.55h0Zm0,0"/>
</svg>