<?xml version="1.0" encoding="UTF-8"?><svg id="a" xmlns="http://www.w3.org/2000/svg" viewBox="0 0 80 80"><defs><style>.b{fill:#ed3742;}.c{fill:#fff;}</style></defs><circle class="b" cx="40.02" cy="40.34" r="40"/><g><path class="c" d="M45.68,56.25c0,.8-.65,1.45-1.45,1.45h-8.43c-.8,0-1.45-.65-1.45-1.45s.65-1.45,1.45-1.45h8.43c.8,0,1.45,.65,1.45,1.45"/><path class="c" d="M45.68,60.65c0,.8-.65,1.45-1.45,1.45h-8.43c-.8,0-1.45-.65-1.45-1.45s.65-1.45,1.45-1.45h8.43c.8,0,1.45,.65,1.45,1.45"/><path class="c" d="M40.02,18.35c-8.61,0-15.59,6.98-15.59,15.59s5.83,11.43,9.47,18.24c.35,.67,1.02,1.11,1.77,1.11h4.27l.07-.09,.07,.09h4.27c.75,0,1.42-.44,1.77-1.11,3.64-6.81,9.47-9.33,9.47-18.24s-6.98-15.59-15.59-15.59Zm3.04,4.96c-8.28,0-14.99,6.71-14.99,14.99,0,.69,.05,1.37,.14,2.04-1.01-1.88-1.58-4.02-1.58-6.3,0-7.35,5.96-13.31,13.31-13.31,3.73,0,7.1,1.54,9.52,4.01-1.94-.92-4.11-1.43-6.4-1.43Z"/><polygon class="c" points="44.42 63.61 43.68 65.47 36.36 65.47 35.61 63.61 44.42 63.61"/></g></svg>