<svg xmlns="http://www.w3.org/2000/svg" viewBox="0 0 64 64" fill="#c12029">
  <rect x="13" y="2" width="38" height="7" rx="3.5" />
  <path fill-rule="evenodd" d="M17 11h30v47H17V11zm5 6h20v20H22V17z" />
  <rect x="11" y="58" width="42" height="4" rx="2" />
  <path
    d="M25.4 21.8c.5 5 4.3 8.8 9.3 9.3l1.4-1.9c.2-.3.6-.4 1-.3.9.3 1.9.5 2.9.5.5 0 .9.4.9.9v3c0 .5-.4.9-.9.9-8.6 0-15.5-6.9-15.5-15.5 0-.5.4-.9.9-.9h3c.5 0 .9.4.9.9 0 1 .2 2 .5 2.9.1.4 0 .8-.3 1z"
    transform="translate(4.5 1.5) scale(0.86)"
  />
</svg>
