<?xml version="1.0" encoding="UTF-8"?><svg id="a" xmlns="http://www.w3.org/2000/svg" viewBox="0 0 80 80"><defs><style>.b{fill:#ed3742;}.c{fill:#fff;}</style></defs><circle class="b" cx="40" cy="40.52" r="40"/><g><path class="c" d="M49.94,48.14c-3.53,3.26-7.97,6.32-13.58,8.87l7.94,7.94s9.53-9.53,5.67-16.84l-.03,.03Z"/><path class="c" d="M33.95,32.15c-3.26,3.53-6.32,7.97-8.87,13.58l-7.94-7.94s9.53-9.53,16.84-5.67l-.03,.03Z"/><g><path class="c" d="M60.37,31.08c2.53-6.74,2.49-11.85,2.49-11.85,0,0-5.11-.04-11.85,2.49l9.36,9.36Z"/><path class="c" d="M60.08,31.84l-9.83-9.83c-7.96,3.16-17.93,9.92-24.51,24.37l9.97,9.97c14.44-6.58,21.2-16.55,24.37-24.51Zm-18.3,8.31c-2.51-2.51-2.51-6.57,0-9.08s6.57-2.51,9.08,0,2.51,6.57,0,9.08-6.57,2.51-9.08,0Z"/></g><polygon class="c" points="33.61 55.3 32.46 60.05 27.21 54.8 21.95 49.55 26.7 48.4 33.61 55.3"/><path class="c" d="M22.69,59.41c-.24-.24-.24-.63,0-.88l2.84-2.84c.24-.24,.63-.24,.88,0s.24,.63,0,.88l-2.84,2.84c-.24,.24-.63,.24-.88,0Z"/><path class="c" d="M26.23,60.99c-.24-.24-.24-.63,0-.88l1.86-1.86c.24-.24,.63-.24,.88,0s.24,.63,0,.88l-1.86,1.86c-.24,.24-.63,.24-.88,0Z"/><path class="c" d="M21.1,55.87c-.24-.24-.24-.63,0-.88l1.86-1.86c.24-.24,.63-.24,.88,0s.24,.63,0,.88l-1.86,1.86c-.24,.24-.63,.24-.88,0Z"/></g></svg>